<?xml version="1.0" encoding="UTF-8" standalone="no"?>
<!DOCTYPE svg PUBLIC "-//W3C//DTD SVG 1.1//EN"
 "http://www.w3.org/Graphics/SVG/1.1/DTD/svg11.dtd">
<!-- Generated by graphviz version 2.47.0 (20210316.0004)
 -->
<!-- Title: dependencies Pages: 1 -->
<svg width="1978pt" height="284pt"
 viewBox="0.00 0.00 1978.00 284.00" xmlns="http://www.w3.org/2000/svg" xmlns:xlink="http://www.w3.org/1999/xlink">
<g id="graph0" class="graph" transform="scale(1 1) rotate(0) translate(4 280)">
<title>dependencies</title>
<polygon fill="white" stroke="transparent" points="-4,4 -4,-280 1974,-280 1974,4 -4,4"/>
<text text-anchor="start" x="964.01" y="-42.4" font-family="sans-serif" font-weight="bold" font-size="14.00">Legend</text>
<polygon fill="#ffffb3" stroke="transparent" points="751,-10 751,-30 771,-30 771,-10 751,-10"/>
<text text-anchor="start" x="774.63" y="-15.4" font-family="sans-serif" font-size="14.00"> &#160;Declarations</text>
<polygon fill="#8dd3c7" stroke="transparent" points="864,-10 864,-30 884,-30 884,-10 864,-10"/>
<text text-anchor="start" x="887.73" y="-15.4" font-family="sans-serif" font-size="14.00"> &#160;Module</text>
<polygon fill="#80b1d3" stroke="transparent" points="950,-10 950,-30 970,-30 970,-10 950,-10"/>
<text text-anchor="start" x="973.78" y="-15.4" font-family="sans-serif" font-size="14.00"> &#160;Bootstrap</text>
<polygon fill="#fdb462" stroke="transparent" points="1047,-10 1047,-30 1067,-30 1067,-10 1047,-10"/>
<text text-anchor="start" x="1070.67" y="-15.4" font-family="sans-serif" font-size="14.00"> &#160;Providers</text>
<polygon fill="#fb8072" stroke="transparent" points="1143,-10 1143,-30 1163,-30 1163,-10 1143,-10"/>
<text text-anchor="start" x="1166.73" y="-15.4" font-family="sans-serif" font-size="14.00"> &#160;Exports</text>
<g id="clust1" class="cluster">
<title>cluster_AppModule</title>
<polygon fill="none" stroke="black" stroke-dasharray="1,5" points="8,-70 8,-268 1962,-268 1962,-70 8,-70"/>
</g>
<g id="clust15" class="cluster">
<title>cluster_AppModule_imports</title>
<polygon fill="none" stroke="black" points="1810,-78 1810,-130 1954,-130 1954,-78 1810,-78"/>
</g>
<g id="clust17" class="cluster">
<title>cluster_AppModule_bootstrap</title>
<polygon fill="none" stroke="black" points="971,-208 971,-260 1095,-260 1095,-208 971,-208"/>
</g>
<g id="clust2" class="cluster">
<title>cluster_AppModule_declarations</title>
<polygon fill="none" stroke="black" points="16,-78 16,-130 1802,-130 1802,-78 16,-78"/>
</g>
<!-- AppComponent -->
<g id="node1" class="node">
<title>AppComponent</title>
<polygon fill="#ffffb3" stroke="black" points="1793.94,-122 1688.06,-122 1688.06,-86 1793.94,-86 1793.94,-122"/>
<text text-anchor="middle" x="1741" y="-99.8" font-family="Times,serif" font-size="14.00">AppComponent</text>
</g>
<!-- AppModule -->
<g id="node13" class="node">
<title>AppModule</title>
<polygon fill="#8dd3c7" stroke="black" points="1074.66,-187 1071.66,-191 1050.66,-191 1047.66,-187 991.34,-187 991.34,-151 1074.66,-151 1074.66,-187"/>
<text text-anchor="middle" x="1033" y="-164.8" font-family="Times,serif" font-size="14.00">AppModule</text>
</g>
<!-- AppComponent&#45;&gt;AppModule -->
<g id="edge1" class="edge">
<title>AppComponent&#45;&gt;AppModule</title>
<path fill="none" stroke="black" d="M1741,-122.04C1741,-143.66 1741,-177 1741,-177 1741,-177 1084.91,-177 1084.91,-177"/>
<polygon fill="black" stroke="black" points="1084.91,-173.5 1074.91,-177 1084.91,-180.5 1084.91,-173.5"/>
</g>
<!-- CadastrarComponent -->
<g id="node2" class="node">
<title>CadastrarComponent</title>
<polygon fill="#ffffb3" stroke="black" points="1670.47,-122 1535.53,-122 1535.53,-86 1670.47,-86 1670.47,-122"/>
<text text-anchor="middle" x="1603" y="-99.8" font-family="Times,serif" font-size="14.00">CadastrarComponent</text>
</g>
<!-- CadastrarComponent&#45;&gt;AppModule -->
<g id="edge2" class="edge">
<title>CadastrarComponent&#45;&gt;AppModule</title>
<path fill="none" stroke="black" d="M1603,-122.22C1603,-142.37 1603,-172 1603,-172 1603,-172 1084.91,-172 1084.91,-172"/>
<polygon fill="black" stroke="black" points="1084.91,-168.5 1074.91,-172 1084.91,-175.5 1084.91,-168.5"/>
</g>
<!-- EntrarComponent -->
<g id="node3" class="node">
<title>EntrarComponent</title>
<polygon fill="#ffffb3" stroke="black" points="1517.31,-122 1400.69,-122 1400.69,-86 1517.31,-86 1517.31,-122"/>
<text text-anchor="middle" x="1459" y="-99.8" font-family="Times,serif" font-size="14.00">EntrarComponent</text>
</g>
<!-- EntrarComponent&#45;&gt;AppModule -->
<g id="edge3" class="edge">
<title>EntrarComponent&#45;&gt;AppModule</title>
<path fill="none" stroke="black" d="M1459,-122.22C1459,-140.83 1459,-167 1459,-167 1459,-167 1085.01,-167 1085.01,-167"/>
<polygon fill="black" stroke="black" points="1085.01,-163.5 1075.01,-167 1085.01,-170.5 1085.01,-163.5"/>
</g>
<!-- InicioComponent -->
<g id="node4" class="node">
<title>InicioComponent</title>
<polygon fill="#ffffb3" stroke="black" points="1382.99,-122 1269.01,-122 1269.01,-86 1382.99,-86 1382.99,-122"/>
<text text-anchor="middle" x="1326" y="-99.8" font-family="Times,serif" font-size="14.00">InicioComponent</text>
</g>
<!-- InicioComponent&#45;&gt;AppModule -->
<g id="edge4" class="edge">
<title>InicioComponent&#45;&gt;AppModule</title>
<path fill="none" stroke="black" d="M1326,-122.03C1326,-139.06 1326,-162 1326,-162 1326,-162 1084.67,-162 1084.67,-162"/>
<polygon fill="black" stroke="black" points="1084.67,-158.5 1074.67,-162 1084.67,-165.5 1084.67,-158.5"/>
</g>
<!-- MenuComponent -->
<g id="node5" class="node">
<title>MenuComponent</title>
<polygon fill="#ffffb3" stroke="black" points="1250.99,-122 1137.01,-122 1137.01,-86 1250.99,-86 1250.99,-122"/>
<text text-anchor="middle" x="1194" y="-99.8" font-family="Times,serif" font-size="14.00">MenuComponent</text>
</g>
<!-- MenuComponent&#45;&gt;AppModule -->
<g id="edge5" class="edge">
<title>MenuComponent&#45;&gt;AppModule</title>
<path fill="none" stroke="black" d="M1194,-122.24C1194,-137.57 1194,-157 1194,-157 1194,-157 1084.88,-157 1084.88,-157"/>
<polygon fill="black" stroke="black" points="1084.88,-153.5 1074.88,-157 1084.88,-160.5 1084.88,-153.5"/>
</g>
<!-- PostagemDeleteComponent -->
<g id="node6" class="node">
<title>PostagemDeleteComponent</title>
<polygon fill="#ffffb3" stroke="black" points="1119.3,-122 946.7,-122 946.7,-86 1119.3,-86 1119.3,-122"/>
<text text-anchor="middle" x="1033" y="-99.8" font-family="Times,serif" font-size="14.00">PostagemDeleteComponent</text>
</g>
<!-- PostagemDeleteComponent&#45;&gt;AppModule -->
<g id="edge6" class="edge">
<title>PostagemDeleteComponent&#45;&gt;AppModule</title>
<path fill="none" stroke="black" d="M1033,-122.11C1033,-122.11 1033,-140.99 1033,-140.99"/>
<polygon fill="black" stroke="black" points="1029.5,-140.99 1033,-150.99 1036.5,-140.99 1029.5,-140.99"/>
</g>
<!-- PostagemEditComponent -->
<g id="node7" class="node">
<title>PostagemEditComponent</title>
<polygon fill="#ffffb3" stroke="black" points="928.6,-122 769.4,-122 769.4,-86 928.6,-86 928.6,-122"/>
<text text-anchor="middle" x="849" y="-99.8" font-family="Times,serif" font-size="14.00">PostagemEditComponent</text>
</g>
<!-- PostagemEditComponent&#45;&gt;AppModule -->
<g id="edge7" class="edge">
<title>PostagemEditComponent&#45;&gt;AppModule</title>
<path fill="none" stroke="black" d="M849,-122.24C849,-137.57 849,-157 849,-157 849,-157 981.25,-157 981.25,-157"/>
<polygon fill="black" stroke="black" points="981.25,-160.5 991.25,-157 981.25,-153.5 981.25,-160.5"/>
</g>
<!-- RodapeComponent -->
<g id="node8" class="node">
<title>RodapeComponent</title>
<polygon fill="#ffffb3" stroke="black" points="751.1,-122 626.9,-122 626.9,-86 751.1,-86 751.1,-122"/>
<text text-anchor="middle" x="689" y="-99.8" font-family="Times,serif" font-size="14.00">RodapeComponent</text>
</g>
<!-- RodapeComponent&#45;&gt;AppModule -->
<g id="edge8" class="edge">
<title>RodapeComponent&#45;&gt;AppModule</title>
<path fill="none" stroke="black" d="M689,-122.03C689,-139.06 689,-162 689,-162 689,-162 981.16,-162 981.16,-162"/>
<polygon fill="black" stroke="black" points="981.16,-165.5 991.16,-162 981.16,-158.5 981.16,-165.5"/>
</g>
<!-- TemaComponent -->
<g id="node9" class="node">
<title>TemaComponent</title>
<polygon fill="#ffffb3" stroke="black" points="608.7,-122 495.3,-122 495.3,-86 608.7,-86 608.7,-122"/>
<text text-anchor="middle" x="552" y="-99.8" font-family="Times,serif" font-size="14.00">TemaComponent</text>
</g>
<!-- TemaComponent&#45;&gt;AppModule -->
<g id="edge9" class="edge">
<title>TemaComponent&#45;&gt;AppModule</title>
<path fill="none" stroke="black" d="M552,-122.22C552,-140.83 552,-167 552,-167 552,-167 981.16,-167 981.16,-167"/>
<polygon fill="black" stroke="black" points="981.16,-170.5 991.16,-167 981.16,-163.5 981.16,-170.5"/>
</g>
<!-- TemaDeleteComponent -->
<g id="node10" class="node">
<title>TemaDeleteComponent</title>
<polygon fill="#ffffb3" stroke="black" points="477.74,-122 328.26,-122 328.26,-86 477.74,-86 477.74,-122"/>
<text text-anchor="middle" x="403" y="-99.8" font-family="Times,serif" font-size="14.00">TemaDeleteComponent</text>
</g>
<!-- TemaDeleteComponent&#45;&gt;AppModule -->
<g id="edge10" class="edge">
<title>TemaDeleteComponent&#45;&gt;AppModule</title>
<path fill="none" stroke="black" d="M403,-122.22C403,-142.37 403,-172 403,-172 403,-172 981.18,-172 981.18,-172"/>
<polygon fill="black" stroke="black" points="981.18,-175.5 991.18,-172 981.18,-168.5 981.18,-175.5"/>
</g>
<!-- TemaEditComponent -->
<g id="node11" class="node">
<title>TemaEditComponent</title>
<polygon fill="#ffffb3" stroke="black" points="310.04,-122 173.96,-122 173.96,-86 310.04,-86 310.04,-122"/>
<text text-anchor="middle" x="242" y="-99.8" font-family="Times,serif" font-size="14.00">TemaEditComponent</text>
</g>
<!-- TemaEditComponent&#45;&gt;AppModule -->
<g id="edge11" class="edge">
<title>TemaEditComponent&#45;&gt;AppModule</title>
<path fill="none" stroke="black" d="M242,-122.04C242,-143.66 242,-177 242,-177 242,-177 981.31,-177 981.31,-177"/>
<polygon fill="black" stroke="black" points="981.31,-180.5 991.31,-177 981.31,-173.5 981.31,-180.5"/>
</g>
<!-- UserEditComponent -->
<g id="node12" class="node">
<title>UserEditComponent</title>
<polygon fill="#ffffb3" stroke="black" points="155.59,-122 24.41,-122 24.41,-86 155.59,-86 155.59,-122"/>
<text text-anchor="middle" x="90" y="-99.8" font-family="Times,serif" font-size="14.00">UserEditComponent</text>
</g>
<!-- UserEditComponent&#45;&gt;AppModule -->
<g id="edge12" class="edge">
<title>UserEditComponent&#45;&gt;AppModule</title>
<path fill="none" stroke="black" d="M90,-122.09C90,-145.13 90,-182 90,-182 90,-182 981.26,-182 981.26,-182"/>
<polygon fill="black" stroke="black" points="981.26,-185.5 991.26,-182 981.26,-178.5 981.26,-185.5"/>
</g>
<!-- AppComponent  -->
<g id="node15" class="node">
<title>AppComponent </title>
<polygon fill="#80b1d3" stroke="black" points="1087.44,-252 978.56,-252 978.56,-216 1087.44,-216 1087.44,-252"/>
<text text-anchor="middle" x="1033" y="-229.8" font-family="Times,serif" font-size="14.00">AppComponent </text>
</g>
<!-- AppModule&#45;&gt;AppComponent  -->
<g id="edge14" class="edge">
<title>AppModule&#45;&gt;AppComponent </title>
<path fill="none" stroke="black" stroke-dasharray="1,5" d="M1033,-187.11C1033,-187.11 1033,-205.99 1033,-205.99"/>
<polygon fill="black" stroke="black" points="1029.5,-205.99 1033,-215.99 1036.5,-205.99 1029.5,-205.99"/>
</g>
<!-- AppRoutingModule -->
<g id="node14" class="node">
<title>AppRoutingModule</title>
<polygon fill="#8dd3c7" stroke="black" points="1946.27,-122 1943.27,-126 1922.27,-126 1919.27,-122 1817.73,-122 1817.73,-86 1946.27,-86 1946.27,-122"/>
<text text-anchor="middle" x="1882" y="-99.8" font-family="Times,serif" font-size="14.00">AppRoutingModule</text>
</g>
<!-- AppRoutingModule&#45;&gt;AppModule -->
<g id="edge13" class="edge">
<title>AppRoutingModule&#45;&gt;AppModule</title>
<path fill="none" stroke="black" d="M1882,-122.09C1882,-145.13 1882,-182 1882,-182 1882,-182 1084.81,-182 1084.81,-182"/>
<polygon fill="black" stroke="black" points="1084.81,-178.5 1074.81,-182 1084.81,-185.5 1084.81,-178.5"/>
</g>
</g>
</svg>
